# xmcd
#
# Track frame offsets:
#	225
#	17115
#	29543
#	41905
#	53535
#	70907
#	81643
#	92648
#	104780
#	117260
#	138587
#	163397
#	176705
#	190374
#	200842
#	217707
#	231401
#	239544
#	251169
#	261937
#	269485
#
# Disc length: 3761 seconds
#
# Revision: 0
# Processed by: cddbd v1.5PL3 Copyright (c) Steve Scherf et al.
# Submitted via: audiograbber 1.82.02
#
DISCID=500eae15
DTITLE=Various Artist - Edice talent
DYEAR=1996
DGENRE=Bluegrass
TTITLE0=I Feel The Blues Movin´ ( Petr Brandejs Band)
TTITLE1=Good´s Not Dead ( Petr Brandejs Band)
TTITLE2=Pouta Tvy ( Prisne tajne)
TTITLE3=Cerna jizda (Prisne tajne)
TTITLE4=Ztrata casu (Cool Band)
TTITLE5=Pout (Cool Band)
TTITLE6=Kridla (Nova Sekce)
TTITLE7=Requiem (Nova Sekce)
TTITLE8=Bloudim tmou (Kontrast)
TTITLE9=Nastava nam (Kontrast)
TTITLE10=Zakouti stinu (Graf)
TTITLE11=Svitani (Graf)
TTITLE12=Talk It All Over With Him (Relief)
TTITLE13=Mam strach branou jit (Relief)
TTITLE14=Buggle Call Rag (Lonesome Boys)
TTITLE15=Will The Circle Be Unbroken (Lonesome Boys)
TTITLE16=Your Big Braun Eyes (E.G. Revival)
TTITLE17=Tired Of Waiting (E.G. Revival)
TTITLE18=Thank You Flatt and Scruggs (B.G. Cwrkot)
TTITLE19=Ida Red (B.G. Cwrkot)
TTITLE20=Midnight (PBB)
EXTD=
EXTT0=
EXTT1=
EXTT2=
EXTT3=
EXTT4=
EXTT5=
EXTT6=
EXTT7=
EXTT8=
EXTT9=
EXTT10=
EXTT11=
EXTT12=
EXTT13=
EXTT14=
EXTT15=
EXTT16=
EXTT17=
EXTT18=
EXTT19=
EXTT20=
PLAYORDER=
